HIERARCHY
ROOT Hips
{
 OFFSET 0.000000 0.000000 0.000000
 CHANNELS 6 Xposition Yposition Zposition Yrotation Xrotation Zrotation
 JOINT Chest
 {
  OFFSET 0.000000 9.585900 0.002600
  CHANNELS 3 Yrotation Xrotation Zrotation
  JOINT Chest2
  {
   OFFSET 0.000000 9.601200 -0.005300
   CHANNELS 3 Yrotation Xrotation Zrotation
   JOINT Chest3
   {
    OFFSET 0.000000 9.561800 0.000000
    CHANNELS 3 Yrotation Xrotation Zrotation
    JOINT Chest4
    {
     OFFSET 0.000000 9.552100 0.000000
     CHANNELS 3 Yrotation Xrotation Zrotation
     JOINT Neck
     {
      OFFSET 0.000000 14.453000 0.000000
      CHANNELS 3 Yrotation Xrotation Zrotation
      JOINT Head
      {
       OFFSET 0.000000 8.936500 -0.011300
       CHANNELS 3 Yrotation Xrotation Zrotation
       End Site
       {
        OFFSET 0.000000 17.073600 -0.006000
       }
      }
     }
     JOINT RightCollar
     {
      OFFSET -2.921100 9.558500 0.000000
      CHANNELS 3 Yrotation Xrotation Zrotation
      JOINT RightShoulder
      {
       OFFSET -13.519700 0.000000 0.000000
       CHANNELS 3 Yrotation Xrotation Zrotation
       JOINT RightElbow
       {
        OFFSET 0.000000 -29.696600 0.000000
        CHANNELS 3 Yrotation Xrotation Zrotation
        JOINT RightWrist
        {
         OFFSET 0.000000 -24.004700 0.000000
         CHANNELS 3 Yrotation Xrotation Zrotation
         End Site
         {
          OFFSET 0.000000 -17.728500 0.000000
         }
        }
       }
      }
     }
     JOINT LeftCollar
     {
      OFFSET 2.921100 9.558500 0.000000
      CHANNELS 3 Yrotation Xrotation Zrotation
      JOINT LeftShoulder
      {
       OFFSET 13.519700 0.000000 0.000000
       CHANNELS 3 Yrotation Xrotation Zrotation
       JOINT LeftElbow
       {
        OFFSET 0.000000 -29.696600 0.000000
        CHANNELS 3 Yrotation Xrotation Zrotation
        JOINT LeftWrist
        {
         OFFSET 0.000000 -24.004700 0.000000
         CHANNELS 3 Yrotation Xrotation Zrotation
         End Site
         {
          OFFSET 0.000000 -17.728500 0.000000
         }
        }
       }
      }
     }
    }
   }
  }
 }
 JOINT RightHip
 {
  OFFSET -7.771700 -0.012900 -0.001300
  CHANNELS 3 Yrotation Xrotation Zrotation
  JOINT RightKnee
  {
   OFFSET 0.000000 -40.869800 0.001200
   CHANNELS 3 Yrotation Xrotation Zrotation
   JOINT RightAnkle
   {
    OFFSET 0.000000 -39.717900 0.002100
    CHANNELS 3 Yrotation Xrotation Zrotation
    JOINT RightToe
    {
     OFFSET 0.000000 -4.965400 11.033500
     CHANNELS 3 Yrotation Xrotation Zrotation
     End Site
     {
      OFFSET 0.000000 -1.423100 5.872300
     }
    }
   }
  }
 }
 JOINT LeftHip
 {
  OFFSET 7.771700 -0.012900 -0.001300
  CHANNELS 3 Yrotation Xrotation Zrotation
  JOINT LeftKnee
  {
   OFFSET 0.000000 -40.869800 0.001200
   CHANNELS 3 Yrotation Xrotation Zrotation
   JOINT LeftAnkle
   {
    OFFSET 0.000000 -39.717900 0.002100
    CHANNELS 3 Yrotation Xrotation Zrotation
    JOINT LeftToe
    {
     OFFSET 0.000000 -4.965400 11.033500
     CHANNELS 3 Yrotation Xrotation Zrotation
     End Site
     {
      OFFSET 0.000000 -1.423100 5.872300
     }
    }
   }
  }
 }
}
MOTION
Frames: 5
Frame Time: 0.008333
0.000000 85.388000 0.000000 0.000000 -5.767877 0.000000 0.000000 11.653817 0.000000 0.000000 -5.885947 0.000000 0.000000 -0.000000 0.000000 0.000000 -0.000000 0.000000 0.000000 12.528835 0.000000 0.000000 0.711642 0.000000 0.000000 -0.000000 0.000000 0.000000 0.000000 -90.000000 0.000000 -2.309062 0.000000 0.000000 2.309062 0.000000 0.000000 -0.000000 0.000000 0.000000 -0.000000 90.000000 0.000000 -2.309062 0.000000 0.000000 2.309062 0.000000 0.000000 8.520406 0.000000 0.000000 1.905762 0.000000 -0.000000 -4.658285 0.000000 0.000000 -0.000000 0.000000 0.000000 8.520406 0.000000 0.000000 1.905762 0.000000 -0.000000 -4.658285 0.000000 0.000000 -0.000000 0.000000
-11.841899 58.008808 27.719631 172.139036 -37.643846 -1.254592 1.588142 24.188803 2.025083 0.199263 3.717860 0.183956 0.336291 6.000798 0.276845 1.313560 20.336997 1.086799 0.434105 9.715128 -1.261982 1.457533 -17.600784 -2.724781 6.373272 -1.437510 -1.756942 46.627448 -45.678485 -26.699836 44.249770 -1.525669 -3.795053 12.959113 10.440419 -34.472529 -10.519000 -6.686453 -1.141056 -34.190698 -41.933243 14.373555 -52.490924 -4.278382 10.152923 -31.335198 2.853614 26.561554 10.030612 -34.549742 0.450203 3.049827 69.177205 5.765116 5.289521 2.675259 2.327990 -0.108788 0.321531 -0.043954 -7.471247 -36.626272 -1.106246 25.188892 74.280606 23.495430 -22.127378 -4.514156 -5.063822 -0.203315 -0.830411 -0.383118
-11.846282 58.011278 27.723649 172.149561 -37.633359 -1.218190 1.553291 24.160627 1.989598 0.198227 3.722302 0.178796 0.320625 5.969934 0.291589 1.286188 20.263088 1.114975 0.228050 9.598279 -1.448080 1.131536 -17.919502 -2.949340 6.399321 -1.314868 -1.788147 46.567667 -45.686757 -26.678763 44.295369 -1.552801 -3.788850 12.924441 10.419703 -34.448427 -10.478232 -6.585224 -1.232862 -34.191781 -41.917090 14.356256 -52.494057 -4.262374 10.155098 -31.308460 2.859611 26.581079 10.040743 -34.548396 0.409614 3.062166 69.170353 5.760607 5.264127 2.684193 2.323593 -0.090520 0.315265 -0.035699 -7.434892 -36.640974 -1.195963 25.228526 74.250221 23.558597 -22.181607 -4.472362 -4.923750 -0.162060 -0.819350 -0.440657
-11.848555 58.011902 27.731978 172.194731 -37.596934 -1.212571 1.486342 24.106782 1.966001 0.202125 3.727289 0.169692 0.299461 5.939039 0.308158 1.255513 20.228577 1.132156 0.009050 9.443017 -1.631278 0.780854 -18.240164 -3.183809 6.434411 -1.231620 -1.820295 46.499841 -45.702872 -26.649538 44.238610 -1.650484 -3.821470 13.006047 10.452628 -34.373599 -10.432942 -6.523910 -1.302193 -34.204162 -41.900742 14.343946 -52.461793 -4.214503 10.144538 -31.301545 2.839281 26.627215 10.010308 -34.570414 0.380509 3.068373 69.160424 5.742281 5.259434 2.668832 2.331441 -0.082830 0.330817 -0.038155 -7.436184 -36.680262 -1.265541 25.314506 74.192348 23.663666 -22.267127 -4.361679 -4.759525 -0.116389 -0.847952 -0.506766
-11.844996 58.016352 27.737243 172.201814 -37.593013 -1.208931 1.450086 24.078613 1.968715 0.174786 3.688363 0.195879 0.315353 5.959732 0.285362 1.232647 20.211031 1.140953 -0.227946 9.281296 -1.806891 0.406043 -18.543138 -3.419419 6.450520 -1.179016 -1.815985 46.443681 -45.700842 -26.623294 44.216418 -1.718865 -3.842797 13.090689 10.484152 -34.319997 -10.398583 -6.496157 -1.307018 -34.158528 -41.905969 14.265196 -52.455201 -4.165733 10.120017 -31.269932 2.826314 26.677338 10.000296 -34.567171 0.387311 3.053396 69.150976 5.710789 5.255551 2.669254 2.340592 -0.083072 0.330657 -0.041122 -7.431119 -36.687009 -1.289154 25.386475 74.165490 23.735750 -22.359911 -4.250758 -4.543260 -0.086245 -0.882867 -0.584548
